<mxfile host="app.diagrams.net" modified="2023-12-01T17:01:59.198Z" agent="Mozilla/5.0 (Macintosh; Intel Mac OS X 10_15_7) AppleWebKit/605.1.15 (KHTML, like Gecko) Version/16.5 Safari/605.1.15" etag="yL8scFuSw7Iwafl72uvf" version="22.1.5" type="github">
  <diagram name="Page-1" id="L4g_c3EAHMDt9B9gxOwX">
    <mxGraphModel dx="1522" dy="1220" grid="0" gridSize="10" guides="1" tooltips="1" connect="1" arrows="1" fold="1" page="0" pageScale="1" pageWidth="850" pageHeight="1100" math="0" shadow="0">
      <root>
        <mxCell id="0" />
        <mxCell id="1" parent="0" />
        <mxCell id="LBm5rImJcvd2DAhtR-Aa-1" value="Ben Reynolds" style="ellipse;whiteSpace=wrap;html=1;fontSize=16;" parent="1" vertex="1">
          <mxGeometry x="202" y="208" width="120" height="80" as="geometry" />
        </mxCell>
        <mxCell id="LBm5rImJcvd2DAhtR-Aa-4" style="edgeStyle=none;curved=1;rounded=0;orthogonalLoop=1;jettySize=auto;html=1;exitX=0;exitY=0;exitDx=0;exitDy=0;entryX=1;entryY=1;entryDx=0;entryDy=0;fontSize=12;startSize=8;endSize=8;" parent="1" source="LBm5rImJcvd2DAhtR-Aa-2" target="LBm5rImJcvd2DAhtR-Aa-3" edge="1">
          <mxGeometry relative="1" as="geometry" />
        </mxCell>
        <mxCell id="LBm5rImJcvd2DAhtR-Aa-10" style="edgeStyle=none;curved=1;rounded=0;orthogonalLoop=1;jettySize=auto;html=1;exitX=0.5;exitY=0;exitDx=0;exitDy=0;entryX=0.5;entryY=1;entryDx=0;entryDy=0;fontSize=12;startSize=8;endSize=8;" parent="1" source="LBm5rImJcvd2DAhtR-Aa-2" target="LBm5rImJcvd2DAhtR-Aa-6" edge="1">
          <mxGeometry relative="1" as="geometry" />
        </mxCell>
        <mxCell id="LBm5rImJcvd2DAhtR-Aa-12" style="edgeStyle=none;curved=1;rounded=0;orthogonalLoop=1;jettySize=auto;html=1;exitX=1;exitY=1;exitDx=0;exitDy=0;fontSize=12;startSize=8;endSize=8;" parent="1" source="LBm5rImJcvd2DAhtR-Aa-2" target="LBm5rImJcvd2DAhtR-Aa-9" edge="1">
          <mxGeometry relative="1" as="geometry" />
        </mxCell>
        <mxCell id="LBm5rImJcvd2DAhtR-Aa-13" style="edgeStyle=none;curved=1;rounded=0;orthogonalLoop=1;jettySize=auto;html=1;exitX=0;exitY=1;exitDx=0;exitDy=0;entryX=1;entryY=0;entryDx=0;entryDy=0;fontSize=12;startSize=8;endSize=8;" parent="1" source="LBm5rImJcvd2DAhtR-Aa-2" target="LBm5rImJcvd2DAhtR-Aa-8" edge="1">
          <mxGeometry relative="1" as="geometry" />
        </mxCell>
        <mxCell id="LBm5rImJcvd2DAhtR-Aa-2" value="Ben Reynolds" style="ellipse;whiteSpace=wrap;html=1;fontSize=16;" parent="1" vertex="1">
          <mxGeometry x="202" y="208" width="120" height="80" as="geometry" />
        </mxCell>
        <mxCell id="LBm5rImJcvd2DAhtR-Aa-3" value="" style="ellipse;whiteSpace=wrap;html=1;fontSize=16;" parent="1" vertex="1">
          <mxGeometry x="-56" y="88" width="120" height="80" as="geometry" />
        </mxCell>
        <mxCell id="LBm5rImJcvd2DAhtR-Aa-6" value="" style="ellipse;whiteSpace=wrap;html=1;fontSize=16;" parent="1" vertex="1">
          <mxGeometry x="200" y="-11" width="120" height="80" as="geometry" />
        </mxCell>
        <mxCell id="LBm5rImJcvd2DAhtR-Aa-7" value="" style="ellipse;whiteSpace=wrap;html=1;fontSize=16;" parent="1" vertex="1">
          <mxGeometry x="516" y="105" width="120" height="80" as="geometry" />
        </mxCell>
        <mxCell id="LBm5rImJcvd2DAhtR-Aa-8" value="" style="ellipse;whiteSpace=wrap;html=1;fontSize=16;" parent="1" vertex="1">
          <mxGeometry x="-22" y="374" width="120" height="80" as="geometry" />
        </mxCell>
        <mxCell id="LBm5rImJcvd2DAhtR-Aa-9" value="" style="ellipse;whiteSpace=wrap;html=1;fontSize=16;" parent="1" vertex="1">
          <mxGeometry x="432" y="387" width="120" height="80" as="geometry" />
        </mxCell>
        <mxCell id="4XEcg5dc7mFZjT0D9GVV-1" style="edgeStyle=none;curved=1;rounded=0;orthogonalLoop=1;jettySize=auto;html=1;exitX=1;exitY=0;exitDx=0;exitDy=0;entryX=0.046;entryY=0.761;entryDx=0;entryDy=0;entryPerimeter=0;fontSize=12;startSize=8;endSize=8;" edge="1" parent="1" source="LBm5rImJcvd2DAhtR-Aa-2" target="LBm5rImJcvd2DAhtR-Aa-7">
          <mxGeometry relative="1" as="geometry" />
        </mxCell>
      </root>
    </mxGraphModel>
  </diagram>
</mxfile>
